<svg width="16" height="17" viewBox="0 0 16 17" fill="none" xmlns="http://www.w3.org/2000/svg">
<path d="M9.61038 7.08858C9.53534 7.08858 9.46337 7.05845 9.41031 7.00481C9.35725 6.95118 9.32744 6.87843 9.32744 6.80258V0.517578H6.50091V6.80358C6.50091 6.87943 6.4711 6.95218 6.41804 7.00581C6.36497 7.05945 6.293 7.08958 6.21796 7.08958H0V9.94658H6.21895C6.29399 9.94658 6.36596 9.97671 6.41902 10.0303C6.47209 10.084 6.5019 10.1567 6.5019 10.2326V16.5176H9.32842V10.2316C9.32842 10.1557 9.35824 10.083 9.4113 10.0293C9.46436 9.97571 9.53633 9.94558 9.61137 9.94558H15.8293V7.08858H9.61038Z" fill="#928D8D"/>
</svg>
