<svg width="18" height="15" viewBox="0 0 18 15" fill="none" xmlns="http://www.w3.org/2000/svg">
<path d="M15.8244 12.8604V0.318359L15.3506 0.358359C13.4517 0.516923 11.5891 0.975844 9.83106 1.71836L8.99805 2.06836V14.5604L9.60451 14.3054C11.4237 13.5415 13.3497 13.0691 15.313 12.9054L15.8244 12.8604Z" fill="#928D8D"/>
<path d="M17.375 2.17578H16.444V13.1488C16.4443 13.2277 16.4151 13.3039 16.3623 13.3621C16.3095 13.4203 16.2369 13.4562 16.1591 13.4628L15.3676 13.5288C15.1381 13.5481 14.9095 13.5718 14.682 13.5998C14.6078 13.6088 14.5346 13.6208 14.4614 13.6308C14.308 13.6518 14.1547 13.6728 14.0013 13.6968C13.9123 13.7108 13.8232 13.7278 13.7352 13.7438C13.5987 13.7678 13.4611 13.7918 13.3246 13.8188C13.2316 13.8378 13.1386 13.8588 13.0436 13.8788C12.914 13.9068 12.7835 13.9348 12.6549 13.9658C12.5559 13.9888 12.457 14.0138 12.365 14.0388C12.2393 14.0698 12.1147 14.1038 11.99 14.1388C11.8911 14.1658 11.7922 14.1938 11.6992 14.2228C11.5755 14.2598 11.4528 14.2978 11.3301 14.3368L11.0422 14.4308C10.9196 14.4728 10.7976 14.5161 10.6762 14.5608L10.3952 14.6608L10.2676 14.7118H17.3789L17.375 2.17578Z" fill="#928D8D"/>
<path d="M2.02467 0.358359L1.55078 0.318359V12.8614L2.10184 12.9084C4.06396 13.0739 5.98822 13.5496 7.80436 14.3184L8.37619 14.5594V2.06836L7.54416 1.71836C5.78609 0.975844 3.92358 0.516923 2.02467 0.358359Z" fill="#928D8D"/>
<path d="M0 2.17578V14.7168H7.11627L7.00151 14.6758C6.91247 14.6418 6.82343 14.6088 6.7334 14.5758C6.60776 14.5298 6.48112 14.4848 6.35449 14.4418L6.07846 14.3498C5.95249 14.3078 5.82618 14.2684 5.69955 14.2318L5.42056 14.1498C5.29293 14.1138 5.16531 14.0798 5.0367 14.0498C4.94667 14.0198 4.84773 13.9948 4.75573 13.9758C4.62612 13.9448 4.49454 13.9158 4.35999 13.8868C4.26699 13.8668 4.174 13.8458 4.081 13.8268C3.94546 13.7998 3.80992 13.7758 3.67438 13.7518L3.40726 13.7048C3.25689 13.6808 3.11046 13.6608 2.95613 13.6398C2.87995 13.6298 2.80476 13.6168 2.72858 13.6088C2.50103 13.5808 2.27349 13.5571 2.04594 13.5378L1.21094 13.4658C1.13327 13.459 1.06095 13.423 1.00835 13.3648C0.955754 13.3066 0.926717 13.2306 0.927005 13.1518V2.17578H0Z" fill="#928D8D"/>
</svg>
