<svg width="21" height="22" viewBox="0 0 21 22" fill="none" xmlns="http://www.w3.org/2000/svg">
<path d="M8.55859 6.81727C8.55859 8.39727 11.6681 9.22427 14.739 9.22427C17.8098 9.22427 20.9193 8.39727 20.9193 6.81727C20.9193 3.65727 8.55859 3.65727 8.55859 6.81727Z" fill="#928D8D"/>
<path d="M20.6888 9.14763C20.6187 9.10484 20.539 9.081 20.4572 9.07837C20.3755 9.07574 20.2944 9.09442 20.2218 9.13263C16.6975 10.5366 12.7774 10.5366 9.25308 9.13263C9.1807 9.09522 9.10004 9.07718 9.0188 9.08021C8.93757 9.08325 8.85845 9.10728 8.78901 9.14999C8.71957 9.19271 8.6621 9.2527 8.62211 9.32423C8.58211 9.39577 8.56093 9.47647 8.56055 9.55864V9.70363C8.56055 11.2836 11.67 12.1106 14.7409 12.1106C17.8118 12.1106 20.9213 11.2836 20.9213 9.70363V9.55864C20.9209 9.47568 20.8992 9.39424 20.8585 9.32222C20.8178 9.2502 20.7593 9.19005 20.6888 9.14763Z" fill="#928D8D"/>
<path d="M2.85156 16.4447C2.85156 18.0247 5.96104 18.8517 9.03193 18.8517C12.1028 18.8517 15.2123 18.0247 15.2123 16.4447C15.2123 13.2867 2.85156 13.2867 2.85156 16.4447Z" fill="#928D8D"/>
<path d="M14.9827 18.7764C14.9127 18.7337 14.833 18.7099 14.7512 18.7073C14.6694 18.7046 14.5884 18.7233 14.5158 18.7614C12.791 19.5311 10.9148 19.8913 9.03092 19.8144C7.14707 19.8913 5.27081 19.5311 3.54605 18.7614C3.47368 18.724 3.39302 18.7059 3.31179 18.709C3.23055 18.712 3.15144 18.736 3.08199 18.7787C3.01255 18.8215 2.95509 18.8815 2.91509 18.953C2.8751 19.0245 2.8539 19.1052 2.85352 19.1874V19.3324C2.85352 20.9124 5.96299 21.7394 9.03388 21.7394C12.1048 21.7394 15.2142 20.9124 15.2142 19.3324V19.1874C15.214 19.1045 15.1925 19.0231 15.1519 18.9511C15.1114 18.8791 15.0531 18.8189 14.9827 18.7764Z" fill="#928D8D"/>
<path d="M6.18037 5.3727C6.81806 5.37287 7.45525 5.33614 8.08879 5.2627C8.19064 5.25109 8.28607 5.20655 8.36086 5.1357C9.38689 4.31655 10.622 3.80885 11.9225 3.6717C12.0061 3.6576 12.0846 3.62115 12.1496 3.56612C12.2147 3.51109 12.264 3.43948 12.2925 3.3587C12.3393 3.23301 12.3641 3.10001 12.3657 2.9657C12.3607 -0.194297 0 -0.194297 0 2.9657C0 4.5457 3.10947 5.3727 6.18037 5.3727Z" fill="#928D8D"/>
<path d="M6.18037 8.26122C6.5761 8.26122 6.95798 8.24721 7.32997 8.22221C7.40389 8.21707 7.47561 8.1946 7.53943 8.15656C7.60326 8.11852 7.65744 8.06597 7.69767 8.00308C7.7379 7.94018 7.76308 7.86868 7.77121 7.79424C7.77934 7.71979 7.77019 7.64447 7.7445 7.57422C7.65107 7.32414 7.60509 7.0585 7.60896 6.79121C7.60896 6.72615 7.59589 6.66176 7.57055 6.60194C7.54521 6.54213 7.50813 6.48813 7.46155 6.44322C7.4158 6.39728 7.36092 6.36167 7.30055 6.33875C7.24018 6.31582 7.17569 6.3061 7.11133 6.31022C6.80068 6.32522 6.49003 6.33521 6.18135 6.33521C4.29626 6.41307 2.41858 6.0532 0.692533 5.28322C0.620156 5.24581 0.539504 5.22776 0.458267 5.2308C0.37703 5.23384 0.297918 5.25786 0.228474 5.30058C0.159031 5.34329 0.101571 5.40328 0.061575 5.47482C0.021579 5.54635 0.000380193 5.62705 0 5.70921L0 5.85422C0 7.43422 3.10947 8.26122 6.18037 8.26122Z" fill="#928D8D"/>
<path d="M6.18037 11.1479C6.5761 11.1479 6.95798 11.1339 7.32997 11.1089C7.40389 11.1038 7.47561 11.0813 7.53943 11.0433C7.60326 11.0052 7.65744 10.9527 7.69767 10.8898C7.7379 10.8269 7.76308 10.7554 7.77121 10.681C7.77934 10.6065 7.77019 10.5312 7.7445 10.4609C7.65151 10.2107 7.60489 9.94526 7.60698 9.67794C7.60698 9.61287 7.59391 9.54849 7.56857 9.48867C7.54324 9.42886 7.50615 9.37486 7.45957 9.32995C7.41349 9.28447 7.35857 9.24916 7.29828 9.22627C7.23799 9.20337 7.17366 9.19338 7.10935 9.19694C6.79969 9.21194 6.49003 9.22195 6.18135 9.22195C4.29626 9.2998 2.41858 8.93992 0.692533 8.16995C0.620156 8.13253 0.539504 8.11448 0.458267 8.11752C0.37703 8.12055 0.297918 8.14458 0.228474 8.18729C0.159031 8.23001 0.101571 8.29 0.061575 8.36153C0.021579 8.43307 0.000380193 8.51377 0 8.59594L0 8.74094C0 10.3209 3.10947 11.1479 6.18037 11.1479Z" fill="#928D8D"/>
<path d="M20.6895 14.9256C20.6196 14.8824 20.5399 14.8583 20.458 14.8557C20.3761 14.8531 20.295 14.872 20.2225 14.9106C19.0778 15.4532 17.844 15.778 16.5828 15.8686C16.4569 15.8994 16.3459 15.9742 16.2693 16.0798C16.1927 16.1854 16.1555 16.315 16.1643 16.4456C16.1646 16.688 16.1245 16.9287 16.0456 17.1576C16.0209 17.23 16.0136 17.3073 16.0244 17.3831C16.0352 17.4589 16.0637 17.531 16.1077 17.5934C16.1516 17.6559 16.2097 17.7068 16.277 17.7419C16.3443 17.7771 16.419 17.7955 16.4948 17.7956H16.5462C19.2837 17.4956 20.919 16.6326 20.919 15.4856V15.3406C20.9196 15.2572 20.8988 15.1752 20.8586 15.1024C20.8183 15.0297 20.7601 14.9687 20.6895 14.9256Z" fill="#928D8D"/>
<path d="M9.03435 13.0755L9.34995 13.0815H9.35788C9.46711 13.0823 9.57328 13.0451 9.65857 12.9761C9.74387 12.9071 9.8031 12.8106 9.82631 12.7027C9.84951 12.5948 9.83528 12.4821 9.78602 12.3836C9.73675 12.285 9.65544 12.2066 9.55574 12.1615L9.4568 12.1155C9.38854 12.0855 9.32127 12.0555 9.25894 12.0215C9.18649 11.984 9.10574 11.966 9.02442 11.9691C8.9431 11.9722 8.86393 11.9963 8.79446 12.0391C8.72499 12.0819 8.66755 12.1421 8.62762 12.2137C8.5877 12.2854 8.56662 12.3662 8.56641 12.4485V12.5935C8.56613 12.7199 8.61507 12.8413 8.70263 12.9315C8.7902 13.0217 8.90935 13.0734 9.03435 13.0755Z" fill="#928D8D"/>
<path d="M20.6883 12.0363C20.6183 11.9935 20.5386 11.9697 20.4568 11.967C20.375 11.9644 20.2939 11.9831 20.2213 12.0213C18.4966 12.791 16.6204 13.1512 14.7365 13.0743L14.4229 13.0683C14.3142 13.0692 14.2089 13.1068 14.1238 13.1751C14.0387 13.2434 13.9785 13.3385 13.9529 13.4453C13.929 13.5531 13.9425 13.6658 13.9912 13.7647C14.0398 13.8636 14.1207 13.9425 14.2201 13.9883C14.6826 14.1899 15.1057 14.4733 15.4696 14.8253C15.5588 14.9155 15.6798 14.9662 15.806 14.9663H15.8357C18.1794 14.8163 20.9169 14.1043 20.9169 12.5953V12.4503C20.9174 12.3672 20.8966 12.2854 20.8566 12.2129C20.8165 12.1403 20.7586 12.0795 20.6883 12.0363Z" fill="#928D8D"/>
<path d="M3.97613 13.8881C4.0361 13.8881 4.09553 13.8766 4.15124 13.8542C5.1277 13.4868 6.14923 13.256 7.18751 13.1681C7.31501 13.1321 7.42634 13.0528 7.50275 12.9435C7.57915 12.8342 7.61597 12.7017 7.60698 12.5681C7.6069 12.5034 7.5939 12.4393 7.56877 12.3797C7.54364 12.3202 7.50689 12.2663 7.46072 12.2214C7.41455 12.1765 7.35991 12.1415 7.30005 12.1184C7.24019 12.0954 7.17634 12.0847 7.11232 12.0871C6.80266 12.1021 6.49299 12.1121 6.18432 12.1121C4.29846 12.1914 2.41973 11.8325 0.692533 11.0631C0.62019 11.0254 0.539471 11.0072 0.458125 11.0101C0.376779 11.013 0.297537 11.0369 0.228004 11.0797C0.158471 11.1225 0.100982 11.1826 0.0610556 11.2543C0.0211287 11.326 0.000104184 11.4069 0 11.4891L0 11.6341C0 12.6981 1.46125 13.5401 3.90985 13.8871C3.93189 13.8891 3.95404 13.8895 3.97613 13.8881Z" fill="#928D8D"/>
</svg>
