<svg width="19" height="20" viewBox="0 0 19 20" fill="none" xmlns="http://www.w3.org/2000/svg">
<path d="M16.0448 3.37804C14.2821 1.59644 11.8914 0.595609 9.39865 0.595703C6.90588 0.595797 4.51524 1.59681 2.75266 3.37854C0.990067 5.16026 -9.27429e-05 7.57675 6.51537e-09 10.0964C9.27559e-05 12.616 0.99043 15.0324 2.75315 16.814C4.51587 18.5956 6.90658 19.5965 9.39935 19.5964C11.8921 19.5963 14.2828 18.5953 16.0453 16.8135C17.8079 15.0318 18.7981 12.6153 18.798 10.0957C18.7979 7.57604 17.8076 5.15963 16.0448 3.37804ZM9.99309 14.23H9.95352V15.462C9.95667 15.5371 9.94476 15.612 9.91851 15.6823C9.89226 15.7526 9.85221 15.8168 9.80078 15.8711C9.74934 15.9253 9.68759 15.9685 9.61922 15.9979C9.55085 16.0274 9.47729 16.0426 9.40295 16.0426C9.32862 16.0426 9.25506 16.0274 9.18669 15.9979C9.11832 15.9685 9.05656 15.9253 9.00513 15.8711C8.9537 15.8168 8.91365 15.7526 8.8874 15.6823C8.86115 15.612 8.84924 15.5371 8.85239 15.462V14.23H7.62957C7.48759 14.224 7.35343 14.1627 7.25509 14.059C7.15676 13.9553 7.10186 13.8172 7.10186 13.6735C7.10186 13.5299 7.15676 13.3918 7.25509 13.2881C7.35343 13.1844 7.48759 13.1231 7.62957 13.117H9.99309C10.3164 13.117 10.6264 12.9872 10.855 12.7562C11.0835 12.5251 11.212 12.2118 11.212 11.885C11.212 11.5583 11.0835 11.2449 10.855 11.0139C10.6264 10.7828 10.3164 10.653 9.99309 10.653H8.80589C8.19046 10.653 7.60024 10.4059 7.16506 9.96605C6.72989 9.52619 6.48541 8.9296 6.48541 8.30754C6.48541 7.68547 6.72989 7.08888 7.16506 6.64902C7.60024 6.20915 8.19046 5.96204 8.80589 5.96204H8.84546V4.73004C8.85148 4.58652 8.91212 4.45091 9.01472 4.35152C9.11731 4.25212 9.25392 4.19663 9.39603 4.19663C9.53814 4.19663 9.67475 4.25212 9.77734 4.35152C9.87994 4.45091 9.94057 4.58652 9.94659 4.73004V5.96204H11.1655C11.2397 5.95885 11.3139 5.97089 11.3834 5.99742C11.4529 6.02395 11.5164 6.06443 11.5701 6.11642C11.6238 6.16841 11.6665 6.23084 11.6956 6.29994C11.7248 6.36905 11.7399 6.4434 11.7399 6.51854C11.7399 6.59367 11.7248 6.66803 11.6956 6.73713C11.6665 6.80624 11.6238 6.86866 11.5701 6.92065C11.5164 6.97264 11.4529 7.01312 11.3834 7.03965C11.3139 7.06618 11.2397 7.07822 11.1655 7.07504H8.80589C8.48263 7.07504 8.17261 7.20484 7.94403 7.43588C7.71545 7.66692 7.58703 7.98029 7.58703 8.30704C7.58703 8.63378 7.71545 8.94715 7.94403 9.17819C8.17261 9.40924 8.48263 9.53904 8.80589 9.53904H9.99309C10.6085 9.53904 11.1987 9.78615 11.6339 10.226C12.0691 10.6659 12.3136 11.2625 12.3136 11.8845C12.3136 12.5066 12.0691 13.1032 11.6339 13.5431C11.1987 13.9829 10.6085 14.23 9.99309 14.23Z" fill="#928D8D"/>
</svg>
