<svg width="20" height="14" viewBox="0 0 20 14" fill="none" xmlns="http://www.w3.org/2000/svg">
<path d="M15.4663 8.9082C15.3536 8.9082 15.2434 8.94199 15.1497 9.00528C15.056 9.06857 14.983 9.15851 14.9399 9.26376C14.8967 9.36901 14.8854 9.48486 14.9074 9.59659C14.9294 9.70832 14.9837 9.81095 15.0634 9.89151C15.1431 9.97207 15.2446 10.0269 15.3552 10.0491C15.4657 10.0714 15.5803 10.06 15.6844 10.0164C15.7885 9.97276 15.8775 9.89892 15.9402 9.8042C16.0028 9.70948 16.0362 9.59811 16.0362 9.48419C16.0359 9.33151 15.9758 9.18517 15.869 9.07721C15.7622 8.96925 15.6174 8.90847 15.4663 8.9082Z" fill="#928D8D"/>
<path d="M18.8874 0.841797H5.74803V2.57079C5.74803 2.72356 5.68799 2.87007 5.58112 2.97809C5.47425 3.08611 5.32931 3.1468 5.17817 3.1468C5.02704 3.1468 4.88209 3.08611 4.77522 2.97809C4.66835 2.87007 4.60832 2.72356 4.60832 2.57079V0.841797H0.569857C0.418722 0.841797 0.273777 0.902485 0.166908 1.01051C0.0600391 1.11853 8.58875e-07 1.26503 8.58875e-07 1.41779V4.87479C8.58875e-07 5.02756 0.0600391 5.17407 0.166908 5.28209C0.273777 5.39011 0.418722 5.4508 0.569857 5.4508C1.01627 5.46165 1.44079 5.64852 1.75273 5.9715C2.06466 6.29447 2.23928 6.72794 2.23928 7.1793C2.23928 7.63066 2.06466 8.06412 1.75273 8.38709C1.44079 8.71007 1.01627 8.89694 0.569857 8.9078C0.494939 8.9078 0.420756 8.92273 0.351554 8.95174C0.282351 8.98075 0.219487 9.02327 0.166558 9.07686C0.113629 9.13045 0.071674 9.19406 0.0430943 9.26406C0.0145146 9.33406 -0.000129207 9.40907 8.58875e-07 9.48479V12.9418C8.58875e-07 13.0946 0.0600391 13.2411 0.166908 13.3491C0.273777 13.4571 0.418722 13.5178 0.569857 13.5178H4.55984V11.7888C4.55984 11.636 4.61988 11.4895 4.72675 11.3815C4.83361 11.2735 4.97856 11.2128 5.12969 11.2128C5.28083 11.2128 5.42577 11.2735 5.53264 11.3815C5.63951 11.4895 5.69955 11.636 5.69955 11.7888V13.5178H18.8874C19.0385 13.5178 19.1834 13.4571 19.2903 13.3491C19.3972 13.2411 19.4572 13.0946 19.4572 12.9418V1.41779C19.4572 1.26503 19.3972 1.11853 19.2903 1.01051C19.1834 0.902485 19.0385 0.841797 18.8874 0.841797ZM5.70054 9.48479C5.70054 9.63756 5.6405 9.78407 5.53363 9.89209C5.42676 10.0001 5.28182 10.0608 5.13068 10.0608C4.97955 10.0608 4.8346 10.0001 4.72773 9.89209C4.62087 9.78407 4.56083 9.63756 4.56083 9.48479V8.33179C4.56083 8.17903 4.62087 8.03253 4.72773 7.92451C4.8346 7.81649 4.97955 7.7558 5.13068 7.7558C5.28182 7.7558 5.42676 7.81649 5.53363 7.92451C5.6405 8.03253 5.70054 8.17903 5.70054 8.33179V9.48479ZM5.70054 6.02779C5.70054 6.18056 5.6405 6.32707 5.53363 6.43509C5.42676 6.54311 5.28182 6.6038 5.13068 6.6038C4.97955 6.6038 4.8346 6.54311 4.72773 6.43509C4.62087 6.32707 4.56083 6.18056 4.56083 6.02779V4.87479C4.56083 4.72203 4.62087 4.57553 4.72773 4.46751C4.8346 4.35949 4.97955 4.2988 5.13068 4.2988C5.28182 4.2988 5.42676 4.35949 5.53363 4.46751C5.6405 4.57553 5.70054 4.72203 5.70054 4.87479V6.02779ZM9.2008 4.87479C9.2008 4.53283 9.30112 4.19855 9.48908 3.91422C9.67704 3.62988 9.94419 3.40828 10.2568 3.27741C10.5693 3.14655 10.9133 3.1123 11.2451 3.17902C11.5769 3.24573 11.8817 3.4104 12.1209 3.65221C12.3601 3.89401 12.523 4.20209 12.589 4.53748C12.6551 4.87288 12.6212 5.22052 12.4917 5.53645C12.3622 5.85239 12.143 6.12242 11.8617 6.31241C11.5804 6.50239 11.2497 6.6038 10.9114 6.6038C10.4578 6.60353 10.0228 6.42128 9.7021 6.09709C9.38137 5.7729 9.20106 5.33327 9.2008 4.87479ZM10.5948 11.1158C10.5323 11.0739 10.4787 11.0199 10.4369 10.9569C10.3951 10.894 10.3661 10.8233 10.3513 10.749C10.3366 10.6747 10.3366 10.5982 10.3512 10.5238C10.3658 10.4495 10.3948 10.3788 10.4365 10.3158L14.9963 3.40179C15.0378 3.33883 15.0912 3.28474 15.1534 3.24262C15.2156 3.2005 15.2854 3.17118 15.3588 3.15632C15.4322 3.14146 15.5078 3.14136 15.5812 3.15603C15.6546 3.1707 15.7245 3.19984 15.7868 3.2418C15.8491 3.28376 15.9026 3.33771 15.9443 3.40057C15.9859 3.46343 16.015 3.53397 16.0297 3.60816C16.0444 3.68236 16.0444 3.75875 16.0299 3.83298C16.0154 3.90721 15.9866 3.97783 15.9451 4.04079L11.3773 10.9568C11.3358 11.0198 11.2823 11.074 11.22 11.1161C11.1577 11.1582 11.0878 11.1875 11.0142 11.2023C10.9407 11.2171 10.865 11.217 10.7915 11.2022C10.718 11.1873 10.6481 11.158 10.5859 11.1158H10.5948ZM15.4712 11.2158C15.1329 11.2158 14.8022 11.1144 14.5209 10.9244C14.2396 10.7344 14.0203 10.4644 13.8908 10.1485C13.7614 9.83252 13.7275 9.48488 13.7935 9.14948C13.8595 8.81409 14.0224 8.50601 14.2616 8.26421C14.5009 8.0224 14.8057 7.85773 15.1375 7.79102C15.4693 7.7243 15.8132 7.75855 16.1258 7.88941C16.4384 8.02028 16.7055 8.24188 16.8935 8.52621C17.0814 8.81055 17.1818 9.14483 17.1818 9.48679C17.1807 9.94545 16.9995 10.3849 16.678 10.7086C16.3565 11.0322 15.921 11.2136 15.4672 11.2128L15.4712 11.2158Z" fill="#928D8D"/>
<path d="M10.9058 4.29883C10.7931 4.29883 10.6829 4.33261 10.5892 4.3959C10.4955 4.4592 10.4224 4.54915 10.3793 4.6544C10.3362 4.75965 10.3249 4.87546 10.3469 4.9872C10.3689 5.09893 10.4231 5.20156 10.5028 5.28212C10.5825 5.36267 10.6841 5.41753 10.7946 5.43976C10.9051 5.46198 11.0197 5.45058 11.1239 5.40698C11.228 5.36339 11.317 5.28956 11.3796 5.19484C11.4422 5.10012 11.4756 4.98875 11.4756 4.87483C11.4754 4.72215 11.4153 4.57578 11.3084 4.46782C11.2016 4.35986 11.0568 4.29909 10.9058 4.29883Z" fill="#928D8D"/>
</svg>
