<svg width="21" height="22" viewBox="0 0 21 22" fill="none" xmlns="http://www.w3.org/2000/svg">
<g clip-path="url(#clip0_32229_3504)">
<path d="M17.3133 3.36328H3.46267C1.5582 3.36328 0 4.93828 0 6.86328V15.6133C0 17.5383 1.5582 19.1133 3.46267 19.1133H17.3133C19.2178 19.1133 20.776 17.5383 20.776 15.6133V6.86328C20.776 4.93828 19.2178 3.36328 17.3133 3.36328ZM18.6984 8.43828L11.8596 13.0758C11.4268 13.3383 10.9074 13.5133 10.388 13.5133C9.8686 13.5133 9.3492 13.3383 8.91637 13.0758L2.0776 8.43828C1.73133 8.17578 1.64477 7.65078 1.90447 7.21328C2.16417 6.86328 2.68357 6.77578 3.1164 7.03828L9.95517 11.6758C10.2149 11.8508 10.6477 11.8508 10.9074 11.6758L17.7462 7.03828C18.179 6.77578 18.6984 6.86328 18.9581 7.30078C19.1312 7.65078 19.0447 8.17578 18.6984 8.43828Z" fill="#928D8D"/>
</g>
<defs>
<clipPath id="clip0_32229_3504">
<rect width="20.776" height="21" fill="white" transform="translate(0 0.738281)"/>
</clipPath>
</defs>
</svg>
