<svg width="21" height="22" viewBox="0 0 21 22" fill="none" xmlns="http://www.w3.org/2000/svg">
<path d="M12.8524 12.0276C12.6252 12.0276 12.4073 12.1189 12.2466 12.2813C12.0859 12.4437 11.9957 12.6639 11.9957 12.8936V16.3576C11.9954 16.5872 11.9051 16.8073 11.7444 16.9697C11.5838 17.132 11.3661 17.2234 11.1389 17.2236H8.56763V4.23362C8.56645 3.87065 8.45338 3.51706 8.24415 3.22206C8.03492 2.92705 7.73993 2.70529 7.40021 2.58763L7.14695 2.50162H11.1379C11.3651 2.50189 11.5828 2.59321 11.7434 2.75556C11.9041 2.91791 11.9944 3.13803 11.9947 3.36762V5.96562C11.9947 6.1953 12.0849 6.41557 12.2456 6.57798C12.4063 6.74039 12.6242 6.83162 12.8514 6.83162C13.0787 6.83162 13.2966 6.74039 13.4573 6.57798C13.6179 6.41557 13.7082 6.1953 13.7082 5.96562V3.36562C13.7082 2.67606 13.4372 2.01474 12.9548 1.52715C12.4724 1.03955 11.8181 0.765625 11.1359 0.765625L1.92821 0.765625C1.89714 0.769784 1.8664 0.776133 1.8362 0.784625C1.79465 0.784625 1.75508 0.765625 1.71353 0.765625C1.48824 0.765887 1.26522 0.810999 1.05718 0.898383C0.849147 0.985767 0.660177 1.11371 0.501061 1.27492C0.341946 1.43612 0.215801 1.62742 0.129829 1.8379C0.0438566 2.04838 -0.00025885 2.27391 1.14252e-06 2.50162V18.0906C0.00117708 18.4536 0.114244 18.8072 0.323475 19.1022C0.532706 19.3972 0.827697 19.619 1.16741 19.7366L6.32382 21.4736C6.49581 21.5277 6.67496 21.555 6.85509 21.5546C7.30922 21.5538 7.7445 21.3711 8.06552 21.0464C8.38654 20.7217 8.56711 20.2816 8.56763 19.8226V18.9566H11.1399C11.8221 18.9566 12.4764 18.6827 12.9588 18.1951C13.4412 17.7075 13.7122 17.0462 13.7122 16.3566V12.8936C13.7122 12.7799 13.69 12.6673 13.6469 12.5622C13.6039 12.4572 13.5408 12.3617 13.4612 12.2813C13.3817 12.2009 13.2872 12.1371 13.1833 12.0935C13.0793 12.05 12.9679 12.0276 12.8554 12.0276H12.8524Z" fill="#EB4F4F"/>
<path d="M20.3078 8.8169L16.8807 5.3529C16.7609 5.23193 16.6083 5.14957 16.4422 5.11621C16.2761 5.08286 16.1039 5.1 15.9475 5.16549C15.791 5.23098 15.6572 5.34186 15.5631 5.48415C15.4689 5.62643 15.4186 5.79372 15.4185 5.9649V8.5649H11.9974C11.7702 8.5649 11.5522 8.65614 11.3916 8.81854C11.2309 8.98095 11.1406 9.20122 11.1406 9.4309C11.1406 9.66058 11.2309 9.88085 11.3916 10.0433C11.5522 10.2057 11.7702 10.2969 11.9974 10.2969H15.4244V12.8969C15.4246 13.0681 15.4749 13.2354 15.569 13.3777C15.6632 13.5199 15.797 13.6308 15.9534 13.6963C16.1099 13.7618 16.282 13.7789 16.4481 13.7456C16.6143 13.7122 16.7668 13.6299 16.8867 13.5089L20.3137 10.0449C20.3935 9.9641 20.4566 9.86813 20.4996 9.76254C20.5425 9.65694 20.5643 9.5438 20.5637 9.42965C20.5632 9.3155 20.5403 9.20258 20.4964 9.09741C20.4524 8.99225 20.3883 8.89691 20.3078 8.8169Z" fill="#EB4F4F"/>
</svg>
