<svg width="20" height="23" viewBox="0 0 20 23" fill="none" xmlns="http://www.w3.org/2000/svg">
<path d="M18.7069 9.60236L10.1571 0.959363C10.0396 0.830681 9.89759 0.727317 9.7396 0.655473C9.58162 0.583629 9.41091 0.544787 9.2377 0.541277C9.0645 0.537767 8.89238 0.569661 8.73167 0.635046C8.57096 0.700431 8.42499 0.797959 8.30249 0.921777C8.17999 1.04559 8.08351 1.19315 8.01882 1.35559C7.95413 1.51803 7.92257 1.69201 7.92604 1.86708C7.92951 2.04215 7.96794 2.2147 8.03902 2.37439C8.1101 2.53408 8.21236 2.67761 8.33967 2.79636L16.8905 11.4394C17.0073 11.5704 17.1493 11.676 17.3078 11.7498C17.4663 11.8236 17.638 11.8641 17.8125 11.8686C17.987 11.8732 18.1605 11.8419 18.3226 11.7765C18.4847 11.7111 18.6319 11.613 18.7553 11.4883C18.8787 11.3636 18.9757 11.2148 19.0404 11.0509C19.1051 10.8871 19.1361 10.7117 19.1316 10.5353C19.1271 10.359 19.0871 10.1854 19.0141 10.0252C18.941 9.86498 18.8365 9.72145 18.7069 9.60336V9.60236Z" fill="#928D8D"/>
<path d="M7.70517 3.98633L7.64087 4.31232C7.16239 6.61672 6.11482 8.76128 4.5957 10.5463L9.24557 15.2463C10.9978 13.7034 13.108 12.6342 15.3794 12.1383L15.7029 12.0733L7.70517 3.98633Z" fill="#928D8D"/>
<path d="M3.74317 11.5254L0.564441 14.7364C0.385495 14.9172 0.243544 15.1319 0.146696 15.3681C0.0498474 15.6044 0 15.8576 0 16.1134C0 16.3691 0.0498474 16.6224 0.146696 16.8586C0.243544 17.0949 0.385495 17.3096 0.564441 17.4904L2.38086 19.3264C2.55973 19.5073 2.77211 19.6507 3.00586 19.7486C3.23961 19.8465 3.49015 19.8969 3.74317 19.8969C3.99618 19.8969 4.24673 19.8465 4.48047 19.7486C4.71422 19.6507 4.9266 19.5073 5.10548 19.3264L8.28421 16.1134L3.74317 11.5254ZM4.19727 16.5744C4.07684 16.6961 3.91349 16.7645 3.74317 16.7645C3.57284 16.7645 3.4095 16.6961 3.28906 16.5744C3.16863 16.4526 3.10097 16.2875 3.10097 16.1154C3.10097 15.9432 3.16863 15.7781 3.28906 15.6564L4.19727 14.7384C4.31771 14.6166 4.48106 14.5482 4.65138 14.5482C4.8217 14.5482 4.98504 14.6166 5.10548 14.7384C5.22592 14.8601 5.29358 15.0252 5.29358 15.1974C5.29358 15.3695 5.22592 15.5346 5.10548 15.6564L4.19727 16.5744Z" fill="#928D8D"/>
<path d="M10.9643 19.6739L11.8379 18.7908C12.017 18.6101 12.159 18.3955 12.256 18.1592C12.3529 17.9229 12.4028 17.6696 12.4028 17.4138C12.4028 17.1581 12.3529 16.9048 12.256 16.6685C12.159 16.4322 12.017 16.2176 11.8379 16.0368L11.1889 15.3809C10.8307 15.6254 10.4856 15.8891 10.1551 16.1708L10.9297 16.9548C10.9893 17.015 11.0366 17.0865 11.0689 17.1652C11.1012 17.2438 11.1178 17.3282 11.1178 17.4134C11.1178 17.4985 11.1012 17.5829 11.0689 17.6615C11.0366 17.7402 10.9893 17.8117 10.9297 17.8719L10.0393 18.7719L8.73438 17.4938L6.91797 19.3298L9.83156 22.1838C10.0765 22.4067 10.3967 22.526 10.7261 22.5172C11.0556 22.5084 11.3691 22.3721 11.602 22.1364C11.8349 21.9007 11.9694 21.5837 11.9778 21.2507C11.9861 20.9177 11.8677 20.5942 11.647 20.3468L10.9643 19.6739Z" fill="#928D8D"/>
<path d="M13.56 0.4043C13.3897 0.4043 13.2264 0.472677 13.106 0.594388C12.9856 0.716099 12.918 0.881174 12.918 1.0533V2.3533C12.918 2.52569 12.9857 2.69102 13.1063 2.81292C13.2269 2.93482 13.3905 3.0033 13.561 3.0033C13.7316 3.0033 13.8952 2.93482 14.0158 2.81292C14.1364 2.69102 14.2041 2.52569 14.2041 2.3533V1.0533C14.2041 0.967903 14.1874 0.883346 14.155 0.804476C14.1226 0.725605 14.0752 0.653971 14.0153 0.593679C13.9555 0.533388 13.8845 0.485624 13.8063 0.453127C13.7282 0.420629 13.6445 0.404037 13.56 0.4043Z" fill="#928D8D"/>
<path d="M18.6987 5.59766H17.4126C17.242 5.59766 17.0785 5.66614 16.9579 5.78804C16.8373 5.90994 16.7695 6.07527 16.7695 6.24766C16.7695 6.42005 16.8373 6.58538 16.9579 6.70728C17.0785 6.82917 17.242 6.89766 17.4126 6.89766H18.6987C18.8693 6.89766 19.0329 6.82917 19.1535 6.70728C19.2741 6.58538 19.3418 6.42005 19.3418 6.24766C19.3418 6.07527 19.2741 5.90994 19.1535 5.78804C19.0329 5.66614 18.8693 5.59766 18.6987 5.59766Z" fill="#928D8D"/>
<path d="M17.8668 1.89135C17.8072 1.83106 17.7364 1.78323 17.6585 1.7506C17.5806 1.71797 17.4971 1.70117 17.4127 1.70117C17.3284 1.70117 17.2449 1.71797 17.1669 1.7506C17.089 1.78323 17.0182 1.83106 16.9586 1.89135L15.6725 3.19135C15.6128 3.25162 15.5655 3.32318 15.5333 3.40194C15.501 3.48069 15.4844 3.5651 15.4844 3.65035C15.4844 3.73559 15.501 3.82 15.5333 3.89876C15.5655 3.97751 15.6128 4.04907 15.6725 4.10935C15.7321 4.16963 15.8029 4.21744 15.8808 4.25006C15.9587 4.28268 16.0422 4.29947 16.1266 4.29947C16.2109 4.29947 16.2944 4.28268 16.3723 4.25006C16.4502 4.21744 16.521 4.16963 16.5807 4.10935L17.8668 2.80935C17.9264 2.74908 17.9738 2.67752 18.006 2.59877C18.0383 2.52001 18.055 2.4356 18.055 2.35035C18.055 2.2651 18.0383 2.18069 18.006 2.10193C17.9738 2.02317 17.9264 1.95162 17.8668 1.89135Z" fill="#928D8D"/>
</svg>
