<svg width="22" height="21" viewBox="0 0 22 21" fill="none" xmlns="http://www.w3.org/2000/svg">
<path d="M17.8882 13.2254C17.6007 13.2247 17.3141 13.2583 17.0344 13.3254L16.8821 12.9114C17.4303 12.748 18.0072 12.708 18.5723 12.7944C19.1374 12.8808 19.6769 13.0914 20.1528 13.4114C20.265 13.4822 20.4004 13.5051 20.5292 13.475C20.6581 13.4449 20.7698 13.3643 20.8399 13.2509C20.9099 13.1375 20.9326 13.0006 20.9028 12.8704C20.873 12.7402 20.7933 12.6272 20.6811 12.5564C19.5394 11.9009 18.2733 11.4974 16.9662 11.3724C17.0264 11.2575 17.0579 11.1294 17.0582 10.9994V10.3604C17.0582 9.91938 16.2519 9.56039 15.8156 9.56039H15.6523L15.4357 8.97339L14.472 8.83439C14.4484 8.77652 14.4178 8.72177 14.381 8.67139L11.8424 5.20439C11.4772 4.7374 11.013 4.35913 10.484 4.09739C10.0349 3.8892 9.52701 3.84963 9.05159 3.9858C8.57618 4.12198 8.16434 4.42497 7.89001 4.84039C6.91947 6.32639 5.74019 8.32339 5.46219 8.76239C5.31957 8.97429 5.26409 9.23395 5.30748 9.48646C5.35086 9.73897 5.48972 9.96451 5.69468 10.1154L7.36566 11.2744H0.201901C0.167199 11.2749 0.133191 11.2843 0.10307 11.3017C0.0729487 11.3191 0.0477023 11.344 0.0297014 11.374C0.0117005 11.404 0.00153543 11.4381 0.000160745 11.4732C-0.00121394 11.5082 0.00624681 11.5431 0.0218425 11.5744L0.632261 12.7184C0.647114 12.7443 0.667369 12.7667 0.691626 12.784C0.715883 12.8013 0.743561 12.813 0.772746 12.8184L3.48847 13.3624C2.8342 13.5536 2.24557 13.9252 1.7886 14.4357C1.33163 14.9461 1.02439 15.5751 0.901336 16.2522C0.778284 16.9293 0.844288 17.6276 1.09195 18.2689C1.3396 18.9102 1.75912 19.469 2.30344 19.8828C2.84776 20.2965 3.49536 20.5488 4.17361 20.6113C4.85185 20.6738 5.53392 20.5441 6.1433 20.2367C6.75269 19.9293 7.26529 19.4564 7.62362 18.871C7.98195 18.2855 8.17183 17.6108 8.17197 16.9224C8.17197 16.9024 8.17197 16.8824 8.17197 16.8624H13.274C13.3176 16.8633 13.3605 16.85 13.3961 16.8244C13.4317 16.7988 13.4583 16.7624 13.4718 16.7204C13.6441 16.0134 13.9545 15.3483 14.3849 14.7644C14.8153 14.1805 15.3569 13.6895 15.9778 13.3204L16.1114 13.6824C15.3337 14.121 14.741 14.8311 14.444 15.6797C14.1471 16.5283 14.1664 17.4572 14.4983 18.2924C14.8302 19.1277 15.452 19.812 16.2471 20.2172C17.0423 20.6224 17.9563 20.7208 18.8181 20.4938C19.6798 20.2669 20.4301 19.7302 20.9285 18.9843C21.427 18.2384 21.6393 17.3344 21.5258 16.4417C21.4122 15.5489 20.9806 14.7286 20.3118 14.1343C19.6429 13.5401 18.7827 13.2127 17.8922 13.2134L17.8882 13.2254ZM4.50649 19.6254C4.02899 19.6263 3.55999 19.4977 3.14831 19.2532C2.73663 19.0087 2.39733 18.6571 2.16572 18.235C1.93411 17.8129 1.81867 17.3358 1.83141 16.8534C1.84415 16.3709 1.98461 15.9007 2.23816 15.4917C2.49171 15.0827 2.84909 14.7499 3.27309 14.5279C3.69709 14.3059 4.17221 14.2029 4.64898 14.2295C5.12575 14.2561 5.58675 14.4114 5.98398 14.6793C6.38121 14.9471 6.70015 15.3177 6.9076 15.7524L4.56783 16.6204C4.50638 16.6432 4.44997 16.678 4.40182 16.7228C4.35367 16.7676 4.31472 16.8216 4.28721 16.8816C4.2597 16.9416 4.24415 17.0066 4.24146 17.0727C4.23877 17.1388 4.24898 17.2048 4.27152 17.2669C4.29406 17.329 4.32849 17.386 4.37283 17.4347C4.41717 17.4834 4.47057 17.5227 4.52996 17.5505C4.58935 17.5783 4.65358 17.5941 4.71898 17.5968C4.78438 17.5995 4.84967 17.5892 4.91113 17.5664L7.16681 16.7294C7.16681 16.7954 7.17472 16.8604 7.17472 16.9294C7.17446 17.6446 6.89346 18.3305 6.3934 18.8365C5.89333 19.3425 5.21507 19.6273 4.50748 19.6284L4.50649 19.6254ZM13.3531 11.2904C12.9233 11.288 12.4984 11.3828 12.1095 11.5677C11.7206 11.7527 11.3775 12.0232 11.1053 12.3594L9.13657 10.6064L10.9401 7.00639L13.1938 9.63339C13.308 9.76522 13.4631 9.85394 13.6337 9.885C13.8042 9.91607 13.9802 9.88764 14.1327 9.80439L14.7065 9.88739L15.216 11.2874L13.3531 11.2904ZM17.8922 19.6284C17.3158 19.6258 16.7557 19.4348 16.2956 19.0839C15.8355 18.7331 15.4999 18.2412 15.3391 17.6818C15.1783 17.1223 15.2008 16.5253 15.4033 15.9799C15.6058 15.4344 15.9774 14.9698 16.4626 14.6554L17.4242 17.2724C17.4703 17.3977 17.5637 17.4994 17.6839 17.5551C17.8041 17.6108 17.9413 17.6159 18.0653 17.5694C18.1893 17.5228 18.2899 17.4284 18.345 17.3069C18.4001 17.1854 18.4052 17.0467 18.3591 16.9214L17.3896 14.2834C17.7566 14.2082 18.1351 14.2118 18.5007 14.294C18.8662 14.3762 19.2105 14.5352 19.5114 14.7607C19.8122 14.9861 20.0627 15.273 20.2468 15.6026C20.4308 15.9322 20.5442 16.2973 20.5796 16.6741C20.6151 17.0509 20.5717 17.4311 20.4524 17.7899C20.3331 18.1486 20.1404 18.478 19.887 18.7567C19.6336 19.0354 19.3251 19.2571 18.9814 19.4074C18.6377 19.5578 18.2666 19.6334 17.8922 19.6294V19.6284Z" fill="#928D8D"/>
<path d="M11.4998 4.08346C11.8475 4.12457 12.1994 4.06055 12.5111 3.8995C12.8228 3.73844 13.0802 3.48759 13.2509 3.17865C13.4215 2.86972 13.4977 2.51658 13.4698 2.16388C13.4418 1.81119 13.3111 1.47479 13.094 1.19721C12.8769 0.919632 12.5833 0.713345 12.2503 0.604437C11.9172 0.495528 11.5597 0.488888 11.2229 0.585355C10.8861 0.681823 10.5852 0.877065 10.3582 1.14639C10.1312 1.41572 9.98828 1.74705 9.94756 2.09846C9.92052 2.33182 9.93923 2.56828 10.0026 2.79434C10.066 3.0204 10.1728 3.23162 10.3169 3.41595C10.4611 3.60027 10.6397 3.7541 10.8427 3.86863C11.0457 3.98316 11.269 4.05616 11.4998 4.08346Z" fill="#928D8D"/>
</svg>
