<svg width="18" height="19" viewBox="0 0 18 19" fill="none" xmlns="http://www.w3.org/2000/svg">
<path d="M15.8587 5.77075L1.83984 2.12975L1.95856 1.57475C2.04443 1.25101 2.2526 0.974278 2.53827 0.804094C2.82395 0.633909 3.1643 0.583873 3.4861 0.664752L15.0751 3.67275C15.3954 3.75955 15.6692 3.96996 15.8376 4.25871C16.0059 4.54746 16.0555 4.89148 15.9754 5.21675L15.8587 5.77075Z" fill="#928D8D"/>
<path d="M0.937692 10.638C0.617405 10.5512 0.343621 10.3408 0.175252 10.0521C0.00688245 9.76332 -0.042621 9.4193 0.037395 9.09403L1.17314 4.58203L10.9676 7.11503H4.34989C3.70696 7.11818 3.09124 7.37774 2.63661 7.83727C2.18198 8.2968 1.92519 8.91915 1.92207 9.56902V10.915L0.937692 10.638Z" fill="#928D8D"/>
<path d="M3.13098 9.56985C3.12871 9.40283 3.15959 9.23704 3.22178 9.08229C3.28397 8.92753 3.37622 8.78696 3.49307 8.66885C3.60992 8.55074 3.74901 8.4575 3.90211 8.39463C4.05521 8.33177 4.21922 8.30056 4.38446 8.30285H16.3663C16.5315 8.30056 16.6955 8.33177 16.8486 8.39463C17.0017 8.4575 17.1408 8.55074 17.2577 8.66885C17.3745 8.78696 17.4668 8.92753 17.529 9.08229C17.5911 9.23704 17.622 9.40283 17.6198 9.56985V17.3278C17.622 17.4949 17.5911 17.6606 17.529 17.8154C17.4668 17.9701 17.3745 18.1107 17.2577 18.2288C17.1408 18.347 17.0017 18.4402 16.8486 18.503C16.6955 18.5659 16.5315 18.5971 16.3663 18.5948H4.38446C4.21922 18.5971 4.05521 18.5659 3.90211 18.503C3.74901 18.4402 3.60992 18.347 3.49307 18.2288C3.37622 18.1107 3.28397 17.9701 3.22178 17.8154C3.15959 17.6606 3.12871 17.4949 3.13098 17.3278V9.56985Z" fill="#928D8D"/>
</svg>
