<svg width="15" height="18" viewBox="0 0 15 18" fill="none" xmlns="http://www.w3.org/2000/svg">
<path d="M7.41086 0.738281C6.53229 0.738281 5.67346 1.00162 4.94296 1.49498C4.21246 1.98835 3.6431 2.68959 3.30689 3.51003C2.97068 4.33047 2.88271 5.23326 3.05411 6.10424C3.22551 6.97521 3.64858 7.77525 4.26982 8.40319C4.89106 9.03113 5.68256 9.45876 6.54425 9.63201C7.40593 9.80525 8.29909 9.71634 9.11078 9.3765C9.92247 9.03666 10.6162 8.46117 11.1043 7.72279C11.5924 6.98442 11.853 6.11632 11.853 5.22828C11.8517 4.03787 11.3832 2.89659 10.5505 2.05483C9.71769 1.21308 8.58857 0.739605 7.41086 0.738281V0.738281Z" fill="#928D8D"/>
<path d="M12.9375 12.6498C12.3471 12.037 11.6411 11.55 10.8613 11.2177C10.0815 10.8853 9.24375 10.7143 8.39746 10.7148H6.4188C5.57268 10.7145 4.73507 10.8855 3.95546 11.2179C3.17584 11.5502 2.47003 12.0371 1.87973 12.6498C0.674286 13.877 -0.00152871 15.5365 2.59663e-06 17.2658C2.59663e-06 17.3984 0.0521187 17.5256 0.144887 17.6194C0.237655 17.7132 0.363476 17.7658 0.494669 17.7658H14.3206C14.4518 17.7658 14.5776 17.7132 14.6704 17.6194C14.7632 17.5256 14.8153 17.3984 14.8153 17.2658C14.8173 15.5368 14.1422 13.8773 12.9375 12.6498Z" fill="#928D8D"/>
</svg>
